<svg width="20" height="20" viewBox="0 0 20 20" fill="none" xmlns="http://www.w3.org/2000/svg">
<path d="M7.26368 20L6.86567 16.8C6.65008 16.7167 6.44693 16.6167 6.25622 16.5C6.06551 16.3833 5.87894 16.2583 5.69652 16.125L2.73632 17.375L0 12.625L2.56219 10.675C2.54561 10.5583 2.53731 10.4458 2.53731 10.3375V9.6625C2.53731 9.55417 2.54561 9.44167 2.56219 9.325L0 7.375L2.73632 2.625L5.69652 3.875C5.87894 3.74167 6.06965 3.61667 6.26866 3.5C6.46766 3.38333 6.66667 3.28333 6.86567 3.2L7.26368 0H12.7363L13.1343 3.2C13.3499 3.28333 13.5531 3.38333 13.7438 3.5C13.9345 3.61667 14.1211 3.74167 14.3035 3.875L17.2637 2.625L20 7.375L18.1592 8.775C17.7944 8.59167 17.4212 8.4375 17.0398 8.3125C16.6584 8.1875 16.2521 8.1 15.8209 8.05L17.3881 6.85L16.4179 5.15L13.9552 6.2C13.5904 5.81667 13.1882 5.49583 12.7488 5.2375C12.3093 4.97917 11.8325 4.78333 11.3184 4.65L10.995 2H9.02985L8.68159 4.65C8.1675 4.78333 7.69071 4.97917 7.25124 5.2375C6.81177 5.49583 6.40962 5.80833 6.04478 6.175L3.58209 5.15L2.61194 6.85L4.75124 8.45C4.66832 8.7 4.61028 8.95 4.57711 9.2C4.54395 9.45 4.52736 9.71667 4.52736 10C4.52736 10.2667 4.54395 10.525 4.57711 10.775C4.61028 11.025 4.66832 11.275 4.75124 11.525L2.61194 13.15L3.58209 14.85L6.04478 13.8C6.3267 14.0833 6.62935 14.3375 6.95274 14.5625C7.27612 14.7875 7.62852 14.975 8.00995 15.125C8.02653 16.075 8.22139 16.9667 8.59453 17.8C8.96766 18.6333 9.46932 19.3667 10.0995 20H7.26368ZM8.28358 13.025C8.38308 12.6917 8.50332 12.3708 8.64428 12.0625C8.78524 11.7542 8.94693 11.4583 9.12935 11.175C8.94693 11.0417 8.80597 10.8708 8.70647 10.6625C8.60697 10.4542 8.55721 10.2333 8.55721 10C8.55721 9.58333 8.70232 9.22917 8.99254 8.9375C9.28275 8.64583 9.63516 8.5 10.0498 8.5C10.2819 8.5 10.5058 8.55417 10.7214 8.6625C10.937 8.77083 11.1111 8.91667 11.2438 9.1C11.5257 8.91667 11.8159 8.75417 12.1144 8.6125C12.4129 8.47083 12.728 8.35833 13.0597 8.275C12.7612 7.74167 12.3466 7.3125 11.8159 6.9875C11.2852 6.6625 10.6965 6.5 10.0498 6.5C9.07131 6.5 8.24627 6.84167 7.57463 7.525C6.90299 8.20833 6.56716 9.03333 6.56716 10C6.56716 10.6333 6.72056 11.2208 7.02736 11.7625C7.33416 12.3042 7.7529 12.725 8.28358 13.025ZM14.9751 18L17.9602 15L14.9751 12L14.2786 12.7L16.0697 14.5H11.9901V15.5H16.0448L14.2786 17.3L14.9751 18ZM14.9751 20C13.5987 20 12.4254 19.5125 11.4552 18.5375C10.4851 17.5625 10 16.3833 10 15C10 13.6167 10.4851 12.4375 11.4552 11.4625C12.4254 10.4875 13.5987 10 14.9751 10C16.3516 10 17.5249 10.4875 18.495 11.4625C19.4652 12.4375 19.9502 13.6167 19.9502 15C19.9502 16.3833 19.4652 17.5625 18.495 18.5375C17.5249 19.5125 16.3516 20 14.9751 20Z" fill="#101010"/>
</svg>
