<svg width="135" height="35" viewBox="0 0 135 35" fill="none" xmlns="http://www.w3.org/2000/svg">
<path d="M6.192 29.216C5.088 29.216 4.008 29.088 2.952 28.832C1.912 28.576 1.072 28.256 0.432 27.872L1.8 24.752C2.408 25.12 3.12 25.416 3.936 25.64C4.752 25.848 5.552 25.952 6.336 25.952C7.104 25.952 7.632 25.872 7.92 25.712C8.224 25.552 8.376 25.336 8.376 25.064C8.376 24.808 8.232 24.624 7.944 24.512C7.672 24.384 7.304 24.288 6.84 24.224C6.392 24.16 5.896 24.088 5.352 24.008C4.808 23.928 4.256 23.824 3.696 23.696C3.152 23.552 2.648 23.344 2.184 23.072C1.736 22.784 1.376 22.4 1.104 21.92C0.832 21.44 0.696 20.832 0.696 20.096C0.696 19.264 0.936 18.528 1.416 17.888C1.912 17.232 2.632 16.72 3.576 16.352C4.52 15.968 5.672 15.776 7.032 15.776C7.944 15.776 8.864 15.872 9.792 16.064C10.736 16.24 11.528 16.512 12.168 16.88L10.8 19.976C10.16 19.608 9.52 19.36 8.88 19.232C8.24 19.088 7.632 19.016 7.056 19.016C6.288 19.016 5.744 19.104 5.424 19.28C5.12 19.456 4.968 19.672 4.968 19.928C4.968 20.184 5.104 20.384 5.376 20.528C5.648 20.656 6.008 20.76 6.456 20.84C6.92 20.904 7.424 20.976 7.968 21.056C8.512 21.12 9.056 21.224 9.6 21.368C10.16 21.512 10.664 21.728 11.112 22.016C11.576 22.288 11.944 22.664 12.216 23.144C12.488 23.608 12.624 24.208 12.624 24.944C12.624 25.744 12.376 26.464 11.88 27.104C11.4 27.744 10.68 28.256 9.72 28.64C8.776 29.024 7.6 29.216 6.192 29.216ZM22.533 29V26.576L22.221 25.976V21.512C22.221 20.792 21.997 20.24 21.549 19.856C21.117 19.456 20.421 19.256 19.461 19.256C18.837 19.256 18.205 19.36 17.565 19.568C16.925 19.76 16.381 20.032 15.933 20.384L14.397 17.288C15.133 16.808 16.013 16.44 17.037 16.184C18.077 15.912 19.109 15.776 20.133 15.776C22.245 15.776 23.877 16.264 25.029 17.24C26.197 18.2 26.781 19.712 26.781 21.776V29H22.533ZM18.693 29.216C17.653 29.216 16.773 29.04 16.053 28.688C15.333 28.336 14.781 27.856 14.397 27.248C14.029 26.64 13.845 25.96 13.845 25.208C13.845 24.408 14.045 23.72 14.445 23.144C14.861 22.552 15.493 22.104 16.341 21.8C17.189 21.48 18.285 21.32 19.629 21.32H22.701V23.696H20.253C19.517 23.696 18.997 23.816 18.693 24.056C18.405 24.296 18.261 24.616 18.261 25.016C18.261 25.416 18.413 25.736 18.717 25.976C19.021 26.216 19.437 26.336 19.965 26.336C20.461 26.336 20.909 26.216 21.309 25.976C21.725 25.72 22.029 25.336 22.221 24.824L22.845 26.504C22.605 27.4 22.133 28.08 21.429 28.544C20.741 28.992 19.829 29.216 18.693 29.216ZM38.1313 15.776C39.1393 15.776 40.0513 15.984 40.8673 16.4C41.6833 16.8 42.3233 17.424 42.7873 18.272C43.2673 19.12 43.5073 20.216 43.5073 21.56V29H38.9473V22.304C38.9473 21.376 38.7553 20.704 38.3713 20.288C38.0033 19.856 37.4833 19.64 36.8113 19.64C36.3313 19.64 35.8913 19.752 35.4913 19.976C35.0913 20.184 34.7793 20.512 34.5553 20.96C34.3313 21.408 34.2193 21.992 34.2193 22.712V29H29.6593V15.992H34.0033V19.688L33.1633 18.608C33.6593 17.664 34.3393 16.96 35.2033 16.496C36.0673 16.016 37.0433 15.776 38.1313 15.776ZM46.3703 29V11.192H50.9303V29H46.3703ZM60.4217 29.216C58.9977 29.216 57.7337 28.928 56.6297 28.352C55.5257 27.776 54.6537 26.984 54.0137 25.976C53.3897 24.952 53.0777 23.784 53.0777 22.472C53.0777 21.16 53.3897 20 54.0137 18.992C54.6537 17.984 55.5257 17.2 56.6297 16.64C57.7337 16.064 58.9977 15.776 60.4217 15.776C61.8457 15.776 63.1097 16.064 64.2137 16.64C65.3337 17.2 66.2057 17.984 66.8297 18.992C67.4537 20 67.7657 21.16 67.7657 22.472C67.7657 23.784 67.4537 24.952 66.8297 25.976C66.2057 26.984 65.3337 27.776 64.2137 28.352C63.1097 28.928 61.8457 29.216 60.4217 29.216ZM60.4217 25.592C60.9497 25.592 61.4137 25.472 61.8137 25.232C62.2297 24.992 62.5577 24.64 62.7977 24.176C63.0377 23.696 63.1577 23.128 63.1577 22.472C63.1577 21.816 63.0377 21.264 62.7977 20.816C62.5577 20.352 62.2297 20 61.8137 19.76C61.4137 19.52 60.9497 19.4 60.4217 19.4C59.9097 19.4 59.4457 19.52 59.0297 19.76C58.6297 20 58.3017 20.352 58.0457 20.816C57.8057 21.264 57.6857 21.816 57.6857 22.472C57.6857 23.128 57.8057 23.696 58.0457 24.176C58.3017 24.64 58.6297 24.992 59.0297 25.232C59.4457 25.472 59.9097 25.592 60.4217 25.592ZM73.6701 26.6L73.7901 21.152L79.0941 15.992H84.4941L78.6141 22.064L76.2861 23.936L73.6701 26.6ZM69.8781 29V11.192H74.4381V29H69.8781ZM79.4301 29L75.4461 24.008L78.2781 20.504L84.9501 29H79.4301ZM94.0408 29V26.576L93.7288 25.976V21.512C93.7288 20.792 93.5048 20.24 93.0568 19.856C92.6248 19.456 91.9288 19.256 90.9688 19.256C90.3448 19.256 89.7128 19.36 89.0728 19.568C88.4328 19.76 87.8888 20.032 87.4408 20.384L85.9048 17.288C86.6408 16.808 87.5208 16.44 88.5448 16.184C89.5848 15.912 90.6168 15.776 91.6408 15.776C93.7528 15.776 95.3848 16.264 96.5368 17.24C97.7048 18.2 98.2888 19.712 98.2888 21.776V29H94.0408ZM90.2008 29.216C89.1608 29.216 88.2808 29.04 87.5608 28.688C86.8408 28.336 86.2888 27.856 85.9048 27.248C85.5368 26.64 85.3528 25.96 85.3528 25.208C85.3528 24.408 85.5528 23.72 85.9528 23.144C86.3688 22.552 87.0008 22.104 87.8488 21.8C88.6968 21.48 89.7928 21.32 91.1368 21.32H94.2088V23.696H91.7608C91.0248 23.696 90.5048 23.816 90.2008 24.056C89.9128 24.296 89.7688 24.616 89.7688 25.016C89.7688 25.416 89.9208 25.736 90.2248 25.976C90.5288 26.216 90.9448 26.336 91.4728 26.336C91.9688 26.336 92.4168 26.216 92.8168 25.976C93.2328 25.72 93.5368 25.336 93.7288 24.824L94.3528 26.504C94.1128 27.4 93.6408 28.08 92.9368 28.544C92.2488 28.992 91.3368 29.216 90.2008 29.216ZM100.615 33.872C100.007 33.872 99.4311 33.808 98.8871 33.68C98.3271 33.568 97.8471 33.408 97.4471 33.2L98.5991 29.96C99.0151 30.216 99.4871 30.344 100.015 30.344C100.415 30.344 100.735 30.208 100.975 29.936C101.231 29.664 101.359 29.232 101.359 28.64V15.992H105.919V28.664C105.919 30.248 105.455 31.512 104.527 32.456C103.599 33.4 102.295 33.872 100.615 33.872ZM103.639 14.552C102.807 14.552 102.135 14.32 101.623 13.856C101.111 13.392 100.855 12.816 100.855 12.128C100.855 11.44 101.111 10.864 101.623 10.4C102.135 9.936 102.807 9.704 103.639 9.704C104.471 9.704 105.143 9.928 105.655 10.376C106.167 10.808 106.423 11.368 106.423 12.056C106.423 12.776 106.167 13.376 105.655 13.856C105.159 14.32 104.487 14.552 103.639 14.552ZM116.799 29V26.576L116.487 25.976V21.512C116.487 20.792 116.263 20.24 115.815 19.856C115.383 19.456 114.687 19.256 113.727 19.256C113.103 19.256 112.471 19.36 111.831 19.568C111.191 19.76 110.647 20.032 110.199 20.384L108.663 17.288C109.399 16.808 110.279 16.44 111.303 16.184C112.343 15.912 113.375 15.776 114.399 15.776C116.511 15.776 118.143 16.264 119.295 17.24C120.463 18.2 121.047 19.712 121.047 21.776V29H116.799ZM112.959 29.216C111.919 29.216 111.039 29.04 110.319 28.688C109.599 28.336 109.047 27.856 108.663 27.248C108.295 26.64 108.111 25.96 108.111 25.208C108.111 24.408 108.311 23.72 108.711 23.144C109.127 22.552 109.759 22.104 110.607 21.8C111.455 21.48 112.551 21.32 113.895 21.32H116.967V23.696H114.519C113.783 23.696 113.263 23.816 112.959 24.056C112.671 24.296 112.527 24.616 112.527 25.016C112.527 25.416 112.679 25.736 112.983 25.976C113.287 26.216 113.703 26.336 114.231 26.336C114.727 26.336 115.175 26.216 115.575 25.976C115.991 25.72 116.295 25.336 116.487 24.824L117.111 26.504C116.871 27.4 116.399 28.08 115.695 28.544C115.007 28.992 114.095 29.216 112.959 29.216Z" fill="white"/>
<path d="M128.872 14V6.8H130.584V14H128.872ZM126.04 11.2V9.6H133.416V11.2H126.04Z" fill="white"/>
</svg>
